<?xml version="1.0" encoding="UTF-8" standalone="no"?>
<svg width="32px" height="23px" viewBox="0 0 32 23" version="1.1" xmlns="http://www.w3.org/2000/svg" xmlns:xlink="http://www.w3.org/1999/xlink" xmlns:sketch="http://www.bohemiancoding.com/sketch/ns">
    <!-- Generator: Sketch 3.4.2 (15857) - http://www.bohemiancoding.com/sketch -->
    <title>Rectangle 88</title>
    <desc>Created with Sketch.</desc>
    <defs></defs>
    <g id="Icons" stroke="none" stroke-width="1" fill="none" fill-rule="evenodd" sketch:type="MSPage">
        <g id="Mobile-Portrait" sketch:type="MSArtboardGroup" transform="translate(-217.000000, -124.000000)" fill="#F0604F">
            <path d="M217.004538,146 L248.756705,146 L248.756705,147 L217.004538,147 L217.004538,146 Z M218.872312,144 L246.88893,144 L246.88893,145 L218.872312,145 L218.872312,144 Z M223.004538,134 L225.004538,134 L225.004538,142 L223.004538,142 L223.004538,134 Z M229.004538,134 L231.004538,134 L231.004538,142 L229.004538,142 L229.004538,134 Z M235.004538,134 L237.004538,134 L237.004538,142 L235.004538,142 L235.004538,134 Z M241.004538,134 L243.004538,134 L243.004538,142 L241.004538,142 L241.004538,134 Z M218.872312,131 L246.88893,131 L246.88893,132 L218.872312,132 L218.872312,131 Z M218.872312,128.6875 L232.880621,124 L246.88893,128.6875 L246.88893,129.625 L218.872312,129.625 L218.872312,128.6875 Z" id="Rectangle-88" sketch:type="MSShapeGroup"></path>
        </g>
    </g>
</svg>